<svg version="1.1" id="Capa_1" xmlns="http://www.w3.org/2000/svg" xmlns:xlink="http://www.w3.org/1999/xlink" x="0px" y="0px" viewBox="0 0 1200 1200" enable-background="new 0 0 1200 1200" xml:space="preserve" width="430px" >
<path fill="#330C4D" d="M355.636,995.07c-0.635,0.156-1.276,0.231-1.912,0.231c-2.283,0-4.496-0.973-6.091-2.696&#10;&#9;c-28.566-30.85-30.733-64.235-24.48-91.645c3.268,1.805,6.947,2.789,10.753,2.789c6.207,0,12.179-2.616,16.387-7.175&#10;&#9;c8.336-9.034,7.768-23.165-1.265-31.499l-8.055-7.433c2.424-4.048,4.654-7.393,6.394-9.858c1.549-2.193,4.04-3.413,6.617-3.413&#10;&#9;c0.922,0,1.855,0.156,2.759,0.48l80.243,28.712c0.183,0.066,0.368,0.094,0.553,0.145c0.793,0.386,2.089,1.174,2.737,2.459&#10;&#9;c0.892,1.769,0.363,4.29-0.237,6.094c-1.292,3.877,0.802,8.068,4.68,9.361c0.776,0.257,1.565,0.382,2.342,0.382&#10;&#9;c3.098,0,5.986-1.963,7.019-5.065c2.761-8.282,1.113-14.232-0.757-17.764c-1.217-2.299-2.785-4.059-4.389-5.467&#10;&#9;c13.023-41.922,30.012-64.339,45.315-76.208c1.128,0.409,2.263,0.803,3.397,1.2c-9.368,12.764-16.147,27.622-19.46,43.87&#10;&#9;l-28.446,139.496L355.636,995.07z M373.56,251.84L390.24,78.618c28.46-9.018,57.295-15.94,86.238-20.748&#10;&#9;c121.709-20.216,251.579-1.505,360.879,56.338c39.732,21.028,76.787,47.201,109.759,77.765c0.358,0.329,0.715,0.659,1.072,0.99&#10;&#9;c12.572,11.637-0.954,31.778-16.632,24.876c-0.404-0.178-0.803-0.366-1.212-0.532C650.206,104.01,448.135,201.248,373.56,251.84z&#10;&#9; M563.301,110.136c1.771,12.233,11.424,20.959,21.559,19.492c10.136-1.468,16.916-12.574,15.145-24.806&#10;&#9;c-1.771-12.233-11.424-20.96-21.559-19.492C568.31,86.797,561.53,97.904,563.301,110.136z M500.689,143.956&#10;&#9;c4.497,4.252,10.257,6.36,16.007,6.36c6.188,0,12.366-2.443,16.943-7.282c2.808-2.969,2.677-7.655-0.292-10.462&#10;&#9;c-2.97-2.81-7.654-2.674-10.462,0.292c-3.222,3.408-8.618,3.562-12.029,0.338c-2.967-2.81-7.652-2.671-10.461,0.292&#10;&#9;C497.587,136.466,497.719,141.149,500.689,143.956z M431.856,122.235c1.771,12.233,11.424,20.959,21.559,19.492&#10;&#9;c10.136-1.468,16.916-12.574,15.145-24.807c-1.771-12.233-11.424-20.959-21.559-19.492&#10;&#9;C436.866,98.896,430.085,110.002,431.856,122.235z M291.815,946.398c-2.197-0.246-4.372-0.801-6.465-1.688&#10;&#9;c-1.364-0.575-3.434-1.451-8.519-1.833c-3.719-0.279-6.409,0.158-8.543,0.784l-16.78,174.267c-0.302,3.148,0.637,6.227,2.649,8.667&#10;&#9;s4.854,3.952,8.002,4.255c2.389,0.228,4.753-0.257,6.837-1.405h0.001c3.433-1.894,5.707-5.348,6.082-9.245L291.815,946.398z&#10;&#9; M375.669,75.529c0.302-3.148-0.637-6.227-2.649-8.667c-2.012-2.44-4.854-3.952-8.001-4.255c-0.384-0.038-0.765-0.055-1.143-0.055&#10;&#9;c-6.022,0-11.189,4.594-11.78,10.708l-71.998,747.746c1.568,0.02,3.146,0.074,4.745,0.195c8.221,0.614,14.166,2.1,18.675,3.658&#10;&#9;l20.087-208.618c-4.073-16.002-6.173-32.462-6.173-49.198c0-21.817,6.551-45.76,17.708-70.6L375.669,75.529z M262.141,933.254&#10;&#9;c8.733-3.308,19.216-3.106,27.82,0.549c5.569,2.366,12.439-0.452,14.78-5.981c2.421-5.721-0.266-12.35-5.991-14.781&#10;&#9;c-4.015-1.7-9.851-3.744-19.36-4.455c-8.892-0.659-17.163,0.515-25.262,3.588c-5.808,2.211-8.738,8.739-6.529,14.547&#10;&#9;C249.783,932.464,256.402,935.429,262.141,933.254z M253.323,894.505c3.013,2.293,7.12,3.055,10.868,1.636&#10;&#9;c2.696-1.026,6.778-2.295,12.523-2.295c5.191,0,10.508,0.821,15.303,2.85c5.718,2.423,12.35-0.266,14.774-5.987&#10;&#9;c0.447-1.056,0.665-2.141,0.777-3.226l-4.47-4.125c-2.711-2.503-4.643-5.532-5.817-8.785c-3.77-1.31-8.795-2.572-15.841-3.1&#10;&#9;c-8.91-0.659-17.172,0.515-25.26,3.59c-5.811,2.212-8.741,8.736-6.531,14.544C250.411,891.612,251.71,893.278,253.323,894.505z&#10;&#9; M255.851,856.029c3.02,2.29,7.137,3.058,10.862,1.647c8.734-3.309,19.21-3.082,27.82,0.549c0.938,0.399,1.913,0.615,2.896,0.749&#10;&#9;c0.981-2.558,2.435-4.982,4.404-7.115c2.316-2.511,5.124-4.395,8.213-5.609c-0.551-3.774-2.962-7.19-6.724-8.788&#10;&#9;c-4.015-1.7-9.851-3.744-19.36-4.455c-8.892-0.656-17.163,0.515-25.262,3.588c-5.808,2.211-8.738,8.739-6.529,14.547&#10;&#9;C252.931,853.14,254.234,854.802,255.851,856.029z M326.825,889.139c1.934,1.787,4.449,2.769,7.081,2.769&#10;&#9;c2.954,0,5.683-1.194,7.685-3.365c3.907-4.235,3.641-10.858-0.594-14.767l-15.696-14.483c-1.946-1.795-4.442-2.772-7.074-2.772&#10;&#9;c-0.143,0-0.286,0.003-0.431,0.009c-2.788,0.113-5.368,1.307-7.26,3.359c-3.908,4.232-3.641,10.858,0.593,14.767L326.825,889.139z&#10;&#9; M745.842,1046.504c-9.134-3.073-15.44-11.315-16.065-20.996L718.22,846.453c-0.019-0.364-1.148-23-8.842-43.979&#10;&#9;c-0.597-1.627-0.949-3.283-1.183-4.943c-25.348,6.428-51.866,10.152-79.023,10.978l-35.163,338.362h23.88h38.69&#10;&#9;c-1.392-3.392-1.878-6.877-1.878-10.028c0-30.461,28.766-55.242,64.122-55.242c35.358,0,64.124,24.781,64.124,55.242&#10;&#9;c0,3.15-0.485,6.636-1.878,10.028h75.126c11.429,0,14.966-15.47,4.673-20.437l-31.206-15.059&#10;&#9;c-21.19-10.226-36.389-29.762-41.091-52.816l-1.222-5.993c-0.9,0.017-1.788,0.054-2.698,0.054&#10;&#9;C772.336,1052.621,759.109,1050.971,745.842,1046.504z M453.846,1139.832c-0.101-1.018-0.156-2.021-0.156-2.988&#10;&#9;c0-30.461,28.766-55.242,64.124-55.242c31.841,0,58.324,20.1,63.279,46.344l33.179-319.276&#10;&#9;c-35.283-0.304-69.598-5.489-101.771-15.135c-9.638,11.894-16.588,26.165-19.815,41.992l-54.172,265.654&#10;&#9;C435.356,1116.671,442.072,1131.463,453.846,1139.832z M517.815,1096.404c-27.196,0-49.323,18.14-49.323,40.44&#10;&#9;c0,5.062,1.675,8.427,10.239,10.653c13.545,3.521,27.813,2.293,41.653,2.287c14.21-0.006,27.658,0.014,36.513-2.287&#10;&#9;c8.564-2.226,10.24-5.591,10.24-10.653C567.136,1114.544,545.01,1096.404,517.815,1096.404z M718.824,1096.404&#10;&#9;c-27.196,0-49.321,18.14-49.321,40.44c0,5.062,1.675,8.427,10.24,10.653c13.368,3.474,27.394,2.335,41.052,2.287&#10;&#9;c12.191-0.043,25.198,0.81,37.113-2.287c8.564-2.226,10.239-5.591,10.239-10.653C768.147,1114.544,746.02,1096.404,718.824,1096.404&#10;&#9;z M739.833,787.87c-5.621,2.017-11.315,3.895-17.082,5.626c-0.113,1.276,0.05,2.592,0.523,3.884&#10;&#9;c8.502,23.182,9.677,47.248,9.723,48.26l11.549,178.913c0.237,3.663,2.599,6.773,6.017,7.924c27.523,9.26,55.716,4.27,70.069,0.468&#10;&#9;c4.549-1.203,7.408-5.761,6.509-10.378c-5.779-29.704-20.885-105.751-36.295-170.244&#10;&#9;C783.237,820.469,766.084,798.815,739.833,787.87z M617.564,791.717c57.58,0,114.344-20.248,159.833-57.017&#10;&#9;c40.331-32.597,65.384-74.449,65.384-109.226c0-8.304-2.142-18.146-6.134-29.046c-1.865,37.526-32.008,68.018-70.14,69.694&#10;&#9;l-40.084,1.762c0,0-4.011,28.844-41.362,46.002c-0.022-0.082-0.023-0.166-0.047-0.248l-11.561-39.073&#10;&#9;c-1.159-3.92-5.274-6.146-9.197-4.998c-3.919,1.159-6.156,5.279-4.997,9.196l11.561,39.073c0.137,0.462,0.324,0.893,0.538,1.305&#10;&#9;c-12.455,3.877-27.74,6.494-46.394,7.05V681.06c0-4.088-3.313-7.401-7.401-7.401c-4.088,0-7.401,3.313-7.401,7.401v45.129&#10;&#9;c-18.654-0.556-33.94-3.173-46.395-7.05c0.213-0.412,0.401-0.843,0.537-1.305l11.562-39.073c1.159-3.917-1.078-8.037-4.997-9.196&#10;&#9;c-3.919-1.165-8.037,1.078-9.197,4.998l-11.562,39.073c-0.024,0.082-0.026,0.166-0.047,0.248&#10;&#9;c-37.351-17.158-41.362-46.002-41.362-46.002l-40.084-1.762c-38.132-1.676-68.273-32.167-70.14-69.692&#10;&#9;c-3.991,10.899-6.133,20.741-6.133,29.045c0,34.777,25.054,76.628,65.384,109.226C503.22,771.469,559.984,791.717,617.564,791.717z&#10;&#9; M332.233,567.044c0,81.59,54.169,153.109,135.459,193.09c-54.466-36.382-90.147-88.417-90.147-134.66&#10;&#9;c0-77.579,150.682-243.683,240.019-243.683s240.019,166.104,240.019,243.683c0,46.242-35.68,98.275-90.144,134.658&#10;&#9;c81.288-39.982,135.455-111.5,135.455-193.089c0-59.887-31.814-119.282-64.049-167.837&#10;&#9;c-36.093-54.366-81.807-106.245-137.193-141.579c-19.014-12.13-41.613-21.365-65.151-26.277&#10;&#9;c-12.311-2.569-24.887-3.957-37.333-3.957c-33.733,0-66.568,10.179-90.994,34.604c-14.269,14.269-11.584,21.681-5.048,25.542&#10;&#9;c7.659-6.565,23.421-19.306,35.837-24.292c3.799-1.518,8.102,0.321,9.625,4.111c1.523,3.793-0.317,8.103-4.109,9.627&#10;&#9;c-6.882,2.763-15.906,9.104-23.433,15.001C437.087,364.666,332.233,484.718,332.233,567.044z M617.564,619.075&#10;&#9;c1.235,1.647,20.695,27.148,18.846-4.476c-0.927-15.844-13.092-25.828-18.846-25.896c-5.754,0.067-17.919,10.052-18.846,25.896&#10;&#9;C596.869,646.223,616.329,620.722,617.564,619.075z M506.554,606.196c29.85,0,54.049,12.76,54.049-9.167&#10;&#9;c0-36.791-24.198-61.616-54.049-61.616c-29.85,0-59.014,29.826-59.014,66.618C447.54,629.114,476.704,606.196,506.554,606.196z&#10;&#9; M728.573,606.196c29.85,0,59.014,22.918,59.014-4.166c0-36.792-29.164-66.618-59.014-66.618c-29.85,0-54.049,24.825-54.049,61.616&#10;&#9;C674.525,618.956,698.723,606.196,728.573,606.196z" style="fill: rgb(95, 61, 181);"/>
</svg>