<svg width="42" height="43" viewBox="0 0 42 43" fill="none" xmlns="http://www.w3.org/2000/svg">
<g clip-path="url(#clip0_258_2039)">
<path d="M31.5 32C37.299 26.201 37.299 16.799 31.5 11C25.701 5.20101 16.299 5.20101 10.5 11C4.70101 16.799 4.70101 26.201 10.5 32C16.299 37.799 25.701 37.799 31.5 32Z" fill="#5f3db5"/>
<path fill-rule="evenodd" clip-rule="evenodd" d="M13.1175 18.8062H16.3751V29.744H13.1175V18.8062ZM14.7255 13.2571C15.8103 13.2571 16.6961 14.1428 16.6961 15.2277C16.6961 16.3125 15.8103 17.1983 14.7255 17.1983C13.6406 17.1983 12.7965 16.3125 12.7965 15.2277C12.7965 14.1428 13.6406 13.2571 14.7255 13.2571ZM18.304 18.8062H21.52V20.334C22.2036 19.3293 23.3301 18.6844 24.617 18.6844H25.5028C27.5536 18.6844 29.2032 20.3726 29.2032 22.3848V29.744H25.9873V28.7394V23.8323C25.9456 22.5869 25.1015 21.6209 23.8562 21.6209C22.6108 21.6209 21.5646 22.5869 21.523 23.8323V29.744H18.307V18.8062H18.304Z" fill="white"/>
</g>
<defs>
<clipPath id="clip0_258_2039">
<rect width="42" height="42" fill="white" transform="translate(0 0.5)"/>
</clipPath>
</defs>
</svg>
